<svg width="63" height="140" viewBox="0 0 63 140" fill="none" xmlns="http://www.w3.org/2000/svg">
<path d="M49.7787 112.555L53.4666 106.265C53.4666 106.265 45.0961 109.684 31.118 109.684C17.1137 109.684 8.87797 106.4 8.87797 106.4L12.9958 113.259L14.4423 134.839C14.4423 137.197 22.0395 139.004 31.4524 139.004C40.8393 139.004 48.4669 137.197 48.4669 134.839L49.7744 112.646L49.7787 112.555ZM53.3362 71.7413C48.9013 72.0149 46.6599 76.9668 44.4185 82.188C43.6062 84.0949 40.7828 92.2611 38.9454 91.2403C37.0906 90.2456 41.3214 83.5476 42.5203 79.5643C41.1433 80.5591 36.122 84.4771 34.8275 80.811C32.7469 82.6223 28.2902 83.5953 28.7854 78.8867C27.6777 80.9022 25.1887 83.6605 22.2046 82.4616C18.2909 80.9674 24.4851 68.4791 26.0271 69.0959C27.5604 69.7953 25.71 72.5753 25.2322 73.6873C24.1419 76.1328 22.9257 79.2516 23.7379 79.838C25.141 80.9674 28.9852 75.7896 29.0764 75.6723C29.7757 74.7211 31.839 68.5703 33.4897 69.274C35.1403 70.0429 29.3718 78.2091 31.5219 79.838C31.952 80.2029 33.7416 79.6816 34.8232 78.461C35.5008 77.7834 35.2749 76.0416 37.5858 70.4989C39.9358 64.9346 42.0164 58.0107 43.6019 58.5276C45.2047 59.0488 43.8973 62.6064 43.3065 63.9833C40.6134 70.2253 35.9743 80.4548 38.1462 79.686C40.318 78.8911 41.4517 78.8911 43.6236 76.3847C45.7955 73.8697 45.6174 69.7084 47.0812 69.7996C48.4886 69.8865 48.3018 71.2721 47.9674 72.2191C49.3443 70.6553 54.6177 67.1977 55.8382 70.5685C57.3325 74.5473 48.3018 80.3853 50.5432 80.0204C52.7151 79.7729 56.2639 77.5141 57.8537 75.4291L62.0194 37.7819C62.0194 37.7819 57.7625 41.2699 30.9529 41.2699C4.165 41.2699 0.342497 37.8774 0.342497 37.8774L3.89134 72.2234C5.81562 66.8589 10.3201 55.93 17.357 56.3601C20.567 56.5468 24.8847 62.7888 21.1577 62.9452C19.594 63.0364 19.4159 59.822 17.6089 59.3963C16.2232 59.1487 14.3945 60.1912 13.1957 61.4118C10.8457 63.7401 5.63753 73.014 6.33687 77.627C7.20128 83.5128 14.4814 75.6159 15.702 73.2833C16.5664 71.6327 17.1745 66.6808 18.9859 67.202C20.9102 67.7189 18.8252 72.8533 17.4221 77.2665C15.8627 82.3096 15.0722 87.5829 13.1957 86.9748C11.2714 86.3623 14.3945 79.8684 14.2164 78.739C12.4051 80.4809 9.10384 84.6422 4.78181 82.5615L6.93197 103.985C6.93197 103.985 12.8351 108.576 30.5272 108.576C48.2193 108.576 54.3701 103.985 54.3701 103.985L57.1544 79.1691C54.8913 81.4322 47.7849 85.3198 47.3549 80.9109C47.0204 77.3534 55.0694 72.2451 52.9887 72.1322L53.3362 71.7413ZM62.4755 3.87024L47.0682 20.0941L44.2361 31.1099C55.1432 31.7875 62.7231 33.3512 62.7231 35.1105C62.7231 37.556 48.7406 39.502 31.5002 39.502C14.2599 39.502 0.277344 37.5169 0.277344 35.0931C0.277344 32.6736 14.2599 30.6581 31.5002 30.6581C33.9457 30.6581 36.3869 30.6581 38.8325 30.7493L42.0642 17.5791L58.4184 0.22584C58.8311 -0.29541 60.0517 0.134621 61.1811 1.09025C62.2887 1.97203 62.9012 3.07534 62.558 3.59659V3.77468L62.4755 3.87024ZM40.2572 37.443C40.2572 37.443 37.2209 37.443 36.7257 36.9696C36.595 36.8274 36.5221 36.6415 36.5216 36.4483C36.5216 36.1052 36.7475 35.9271 37.0428 35.8185L37.2904 36.2485C37.1732 36.2963 37.1341 36.3354 37.1123 36.3832C37.1123 36.6308 38.9193 36.7958 40.3224 36.7698C41.708 36.7481 43.4021 36.6308 43.4021 36.4049C43.4021 36.3354 43.2631 36.2702 43.0372 36.2007L43.3109 35.7968C43.6757 35.9054 43.9885 36.1312 43.9885 36.4961C43.9885 37.126 43.1762 37.2432 42.655 37.3084C42.0425 37.3996 40.2789 37.4474 40.2789 37.4474L40.2572 37.443Z" fill="white"/>
</svg>
