<svg width="1600" height="414" viewBox="0 0 1600 414" fill="none" xmlns="http://www.w3.org/2000/svg">
<path fill-rule="evenodd" clip-rule="evenodd" d="M1600 296.21L1533.33 329.122C1466.67 362.034 1333.33 427.858 1200 411.402C1066.67 394.946 933.333 296.21 800 263.297C666.667 230.385 533.333 263.297 400 263.297C266.667 263.297 133.333 230.385 66.6666 213.929L-2.87543e-05 197.473L-1.14907e-05 2.94866e-05L66.6667 3.53148e-05C133.333 4.11429e-05 266.667 5.27993e-05 400 6.44557e-05C533.333 7.61121e-05 666.667 8.77684e-05 800 9.94248e-05C933.333 0.000111081 1066.67 0.000122738 1200 0.000134394C1333.33 0.00014605 1466.67 0.000157707 1533.33 0.000163535L1600 0.000169363L1600 296.21Z" fill="white"/>
</svg>
