<svg width="89" height="116" viewBox="0 0 89 116" fill="none" xmlns="http://www.w3.org/2000/svg">
<path d="M10.764 0H16.0387V5.16682H20.865V0H26.1397V15.6406H20.865V10.4061H16.0387V15.6406H10.7689V0H10.764Z" fill="white"/>
<path d="M33.072 5.18615H28.431V0H42.9926V5.18615H38.3468V15.6406H33.072V5.18615Z" fill="white"/>
<path d="M45.3035 0H50.8025L54.1857 5.49548L57.5641 0H63.0631V15.6406H57.8127V7.88798L54.1857 13.4511H54.0931L50.4612 7.89281V15.6406H45.3035V0Z" fill="white"/>
<path d="M65.6858 0H70.9654V10.4738H78.3754V15.6455H65.6858V0Z" fill="white"/>
<path fill-rule="evenodd" clip-rule="evenodd" d="M10.5983 106.681L0.624023 22.7988H88.374L78.3949 106.672L44.4503 116L10.5983 106.681ZM30.7661 60.7647L29.8204 50.228H69.5273L70.4535 39.9427H18.486L21.2843 71.0548H57.2471L56.043 84.3948L44.4698 87.4978H44.46L32.9063 84.4045L32.1653 76.2023H21.7425L23.1953 92.3553L44.4503 98.2037L65.7394 92.3553L68.3329 63.5293L68.5864 60.7695H30.7661V60.7647Z" fill="white"/>
</svg>
