<svg width="80" height="100" viewBox="0 0 80 100" fill="none" xmlns="http://www.w3.org/2000/svg">
<path d="M50 0H10C7.34784 0 4.8043 1.05357 2.92893 2.92894C1.05357 4.80431 0 7.34785 0 10V90.0002C0 92.6524 1.05357 95.1959 2.92893 97.0713C4.8043 98.9467 7.34784 100 10 100H70C72.6522 100 75.1957 98.9467 77.0711 97.0713C78.9464 95.1959 80 92.6524 80 90.0002V30.0001L50 0ZM36.275 70.9302C36.275 77.6552 33.055 80.0002 27.87 80.0002C26.645 80.0002 25.035 79.7902 23.985 79.4402L24.58 75.1352C25.315 75.3802 26.26 75.5552 27.31 75.5552C29.55 75.5552 30.955 74.5402 30.955 70.8652V56.0151H36.275V70.9302ZM46.49 79.9652C43.795 79.9652 41.135 79.2602 39.805 78.5302L40.89 74.1152C42.325 74.8502 44.535 75.5852 46.81 75.5852C49.265 75.5852 50.555 74.5702 50.555 73.0302C50.555 71.5552 49.435 70.7152 46.6 69.7002C42.68 68.3402 40.125 66.1652 40.125 62.7302C40.125 58.7001 43.485 55.6201 49.055 55.6201C51.72 55.6201 53.68 56.1801 55.08 56.8101L53.89 61.1152C52.945 60.6601 51.265 59.9951 48.955 59.9951C46.645 59.9951 45.52 61.0452 45.52 62.2702C45.52 63.7752 46.855 64.4452 49.895 65.5952C54.065 67.1402 56.025 69.3052 56.025 72.6352C56.015 76.6002 52.975 79.9652 46.49 79.9652ZM50 35.0001H45V10L70 35.0001H50Z" fill="white"/>
</svg>
