<svg width="106" height="106" viewBox="0 0 106 106" fill="none" xmlns="http://www.w3.org/2000/svg">
<path d="M106 51.6265C106 44.604 97.2064 37.9481 83.7223 33.8229C86.8361 20.0827 85.4537 9.14702 79.3587 5.6446C77.8818 4.81745 76.2103 4.4011 74.518 4.43885V9.25302C75.5117 9.25302 76.3112 9.45177 76.9825 9.81835C79.9196 11.5055 81.196 17.9185 80.2022 26.1733C79.9637 28.2049 79.5751 30.3426 79.0981 32.5244C74.5826 31.4363 69.9998 30.6499 65.3799 30.1703C62.6277 26.3733 59.625 22.7642 56.392 19.3672C63.4366 12.8217 70.0483 9.23535 74.5445 9.23535V4.41677C68.5997 4.41677 60.8219 8.65235 52.9558 15.9973C45.0942 8.70093 37.312 4.5051 31.3716 4.5051V9.31926C35.8457 9.31926 42.4795 12.8879 49.5241 19.3893C46.4987 22.5693 43.4733 26.1733 40.598 30.1703C35.9686 30.6446 31.3776 31.4385 26.8577 32.5465C26.3587 30.3868 25.9921 28.2933 25.7315 26.2837C24.7157 18.0245 25.97 11.6115 28.8894 9.90668C29.5342 9.51802 30.3778 9.34135 31.3716 9.34135V4.52718C29.5607 4.52718 27.9133 4.91585 26.4912 5.73293C20.4182 9.23535 19.0579 20.1445 22.1893 33.845C8.74942 37.9967 0 44.6261 0 51.6265C0 58.649 8.79358 65.3049 22.2777 69.4257C19.1639 83.1704 20.5463 94.106 26.6413 97.604C28.0458 98.4255 29.6888 98.8142 31.4997 98.8142C37.4445 98.8142 45.2223 94.5786 53.0883 87.2337C60.95 94.5344 68.7277 98.7259 74.6726 98.7259C76.3779 98.7619 78.0621 98.3442 79.553 97.5157C85.6259 94.0177 86.9862 83.1085 83.8548 69.408C97.2506 65.2829 106 58.6269 106 51.6265ZM77.8658 37.2149C77.0266 40.1028 76.0539 42.9502 74.9508 45.7479C73.1451 42.2356 71.1624 38.8171 69.0104 35.5057C72.08 35.9606 75.0392 36.5215 77.8702 37.2149H77.8658ZM67.9725 60.2258C66.2897 63.1408 64.5584 65.91 62.7653 68.4805C56.2827 69.0519 49.7628 69.0593 43.2789 68.5026C39.5598 63.1901 36.3074 57.5659 33.5578 51.6928C36.3032 45.8058 39.5418 40.1618 43.2392 34.8211C49.7201 34.2486 56.2386 34.2397 62.7211 34.7946C64.5143 37.3651 66.2677 40.1123 67.9504 43.0096C69.5934 45.8363 71.0863 48.7071 72.4466 51.6044C71.0712 54.5369 69.5786 57.413 67.9725 60.2258ZM74.9508 57.4168C76.1168 60.3097 77.115 63.207 77.9321 66.016C75.1054 66.7094 72.1198 67.2924 69.0325 67.7429C71.1756 64.4014 73.1509 60.955 74.9508 57.4168ZM53.0442 80.4718C51.0346 78.3959 49.025 76.086 47.0375 73.5553C48.9808 73.6436 50.9683 73.7098 52.9779 73.7098C55.0096 73.7098 57.0192 73.6657 58.9846 73.5553C57.0412 76.086 55.0317 78.3959 53.0442 80.4718ZM36.9675 67.7429C33.9895 67.3114 31.0331 66.7426 28.1077 66.0381C28.9071 63.2512 29.9008 60.3759 31.0227 57.5051C31.9104 59.2276 32.8423 60.9589 33.8582 62.6903C34.874 64.4172 35.9075 66.1044 36.9675 67.7429ZM52.9337 22.7813C54.9433 24.8571 56.9529 27.167 58.9404 29.6978C56.9971 29.6094 55.0096 29.5432 53 29.5432C50.9683 29.5432 48.9587 29.5874 46.9933 29.6978C48.9367 27.167 50.9462 24.8571 52.9337 22.7813ZM36.9454 35.5101C34.8028 38.8444 32.8275 42.2833 31.0271 45.8142C29.8929 42.9984 28.898 40.1285 28.0458 37.2149C30.8725 36.5436 33.8582 35.9606 36.9454 35.5101ZM17.3928 62.5578C9.74317 59.2983 4.7965 55.0185 4.7965 51.6265C4.7965 48.2345 9.74317 43.9327 17.3928 40.6953C19.2478 39.8958 21.2795 39.1804 23.3774 38.5134C24.6097 42.7446 26.2306 47.1524 28.2358 51.6707C26.3426 55.9203 24.7415 60.2941 23.4437 64.7617C21.3919 64.1264 19.3725 63.3909 17.3928 62.5578ZM29.0175 93.4303C26.0804 91.7519 24.804 85.3301 25.7977 77.0798C26.0362 75.0481 26.4249 72.906 26.9019 70.7242C31.1331 71.7621 35.7573 72.5615 40.6201 73.0827C43.3724 76.8796 46.3751 80.4887 49.608 83.8859C42.5634 90.4314 35.9517 94.0177 31.4555 94.0177C30.6072 94.0269 29.7698 93.8267 29.0175 93.4347V93.4303ZM80.2685 76.9694C81.2843 85.2241 80.03 91.6415 77.1106 93.3464C76.4657 93.735 75.6222 93.9073 74.6284 93.9073C70.1543 93.9073 63.5205 90.343 56.4759 83.8373C59.5013 80.6661 62.5267 77.0577 65.402 73.0606C70.0314 72.5864 74.6225 71.7924 79.1423 70.6844C79.6413 72.8663 80.0256 74.9598 80.2685 76.9694ZM88.5851 62.5578C86.7301 63.3572 84.6984 64.0727 82.6005 64.7396C81.2798 60.2492 79.6566 55.8534 77.7422 51.5823C79.7297 47.0906 81.3241 42.7049 82.5342 38.4914C84.6763 39.1583 86.7036 39.8958 88.6072 40.6953C96.2568 43.9548 101.203 48.2345 101.203 51.6265C101.181 55.0185 96.2347 59.3203 88.5851 62.5578Z" fill="white"/>
<path d="M52.9772 61.5027C55.5964 61.5027 58.1083 60.4622 59.9603 58.6102C61.8124 56.7581 62.8528 54.2462 62.8528 51.627C62.8528 49.0078 61.8124 46.4959 59.9603 44.6439C58.1083 42.7918 55.5964 41.7514 52.9772 41.7514C50.358 41.7514 47.8461 42.7918 45.994 44.6439C44.142 46.4959 43.1015 49.0078 43.1015 51.627C43.1015 54.2462 44.142 56.7581 45.994 58.6102C47.8461 60.4622 50.358 61.5027 52.9772 61.5027Z" fill="white"/>
</svg>
