<svg width="105" height="104" viewBox="0 0 105 104" fill="none" xmlns="http://www.w3.org/2000/svg">
<path d="M52.5 0C81.375 0 105 23.4 105 52C105 80.6 81.375 104 52.5 104C23.625 104 0 80.6 0 52C0 23.4 23.625 0 52.5 0ZM42 69.225C42.6562 72.15 42.6562 74.75 42 77.025L41.6719 78C41.6719 78.325 41.3438 78.65 41.3438 78.65C40.6875 79.95 40.0312 80.925 39.0469 82.225C36.0938 85.475 31.8281 86.775 29.8594 85.8C27.8906 84.825 28.875 79.95 32.4844 76.375C36.4219 72.475 41.6719 69.875 41.6719 69.875L42 69.225ZM85.3125 22.1C83.0156 13 67.5938 9.75 52.8281 14.95C44.2969 18.2 34.7812 23.075 27.8906 29.25C19.6875 36.725 18.7031 43.225 19.0312 45.825C21 55.25 34.125 61.75 39.7031 66.3C38.0625 66.95 26.25 72.8 23.625 78.975C20.6719 85.475 23.9531 90.025 26.25 90.35C33.1406 92.3 40.3594 88.725 43.9688 83.2C47.5781 77.675 47.25 70.85 45.6094 67.275C48.1619 66.4943 50.8751 66.3823 53.4844 66.95C62.6719 67.925 64.6406 73.775 63.9844 76.05C63.3281 78.325 61.6875 79.625 61.0312 80.275C60.375 80.6 60.0469 80.925 60.375 80.925C60.375 81.25 60.7031 81.25 61.3594 81.25C62.0156 81.25 66.2812 79.3 66.2812 74.75C66.6094 69.225 61.0312 63.05 51.5156 63.05C47.5781 63.05 44.9531 63.375 43.3125 64.025C43.3125 63.7 42.9844 63.7 42.9844 63.7C37.0781 57.525 26.25 52.975 26.5781 44.525C26.5781 41.6 27.8906 33.475 47.5781 23.725C63.6562 15.6 76.7812 17.875 79.0781 22.75C82.3594 29.575 72.1875 42.575 55.4531 44.525C48.8906 45.175 45.6094 42.9 44.9531 41.925C43.9688 40.95 43.9688 40.95 43.6406 40.95C42.9844 41.275 43.3125 41.925 43.6406 42.575C44.2969 43.875 46.2656 46.15 49.875 47.45C52.8281 48.425 60.375 49.075 69.5625 45.5C79.7344 41.6 87.6094 30.875 85.3125 21.775V22.1Z" fill="white"/>
</svg>
